<svg id="visual" viewBox="0 0 900 600" width="900" height="600" xmlns="http://www.w3.org/2000/svg" xmlns:xlink="http://www.w3.org/1999/xlink" version="1.1"><rect x="0" y="0" width="900" height="600" fill="#5bb7b2"></rect><path d="M0 319L10.7 321.8C21.3 324.7 42.7 330.3 64.2 330.7C85.7 331 107.3 326 128.8 325.7C150.3 325.3 171.7 329.7 193 345.3C214.3 361 235.7 388 257 382.5C278.3 377 299.7 339 321.2 326C342.7 313 364.3 325 385.8 333.8C407.3 342.7 428.7 348.3 450 351.2C471.3 354 492.7 354 514.2 350.5C535.7 347 557.3 340 578.8 357.5C600.3 375 621.7 417 643 417.5C664.3 418 685.7 377 707 362.7C728.3 348.3 749.7 360.7 771.2 386.3C792.7 412 814.3 451 835.8 461.8C857.3 472.7 878.7 455.3 889.3 446.7L900 438L900 601L889.3 601C878.7 601 857.3 601 835.8 601C814.3 601 792.7 601 771.2 601C749.7 601 728.3 601 707 601C685.7 601 664.3 601 643 601C621.7 601 600.3 601 578.8 601C557.3 601 535.7 601 514.2 601C492.7 601 471.3 601 450 601C428.7 601 407.3 601 385.8 601C364.3 601 342.7 601 321.2 601C299.7 601 278.3 601 257 601C235.7 601 214.3 601 193 601C171.7 601 150.3 601 128.8 601C107.3 601 85.7 601 64.2 601C42.7 601 21.3 601 10.7 601L0 601Z" fill="#000018" stroke-linecap="round" stroke-linejoin="miter"></path></svg>