<svg id="visual" viewBox="0 0 900 600" width="900" height="600" xmlns="http://www.w3.org/2000/svg" xmlns:xlink="http://www.w3.org/1999/xlink" version="1.1"><rect x="0" y="0" width="900" height="600" fill="#000018"></rect><defs><linearGradient id="grad1_0" x1="33.3%" y1="100%" x2="100%" y2="0%"><stop offset="20%" stop-color="#000018" stop-opacity="1"></stop><stop offset="80%" stop-color="#000018" stop-opacity="1"></stop></linearGradient></defs><defs><linearGradient id="grad2_0" x1="0%" y1="100%" x2="66.7%" y2="0%"><stop offset="20%" stop-color="#000018" stop-opacity="1"></stop><stop offset="80%" stop-color="#000018" stop-opacity="1"></stop></linearGradient></defs><g transform="translate(900, 600)"><path d="M-486.7 0C-471.6 -65.4 -456.4 -130.9 -419.4 -173.7C-382.5 -216.6 -323.7 -237 -285.7 -285.7C-247.7 -334.4 -230.4 -411.5 -186.3 -449.7C-142.1 -487.9 -71.1 -487.3 0 -486.7L0 0Z" fill="#5bb7b2"></path></g><g transform="translate(0, 0)"><path d="M486.7 0C475 64.5 463.2 128.9 433.3 179.5C403.4 230 355.4 266.7 314 314C272.5 361.2 237.5 419.1 186.3 449.7C135 480.3 67.5 483.5 0 486.7L0 0Z" fill="#5bb7b2"></path></g></svg>