<svg id="visual" viewBox="0 0 960 540" width="960" height="540" xmlns="http://www.w3.org/2000/svg" xmlns:xlink="http://www.w3.org/1999/xlink" version="1.1"><rect x="0" y="0" width="960" height="540" fill="#000018"></rect><path d="M0 356L22.8 349.2C45.7 342.3 91.3 328.7 137 321.7C182.7 314.7 228.3 314.3 274 315.7C319.7 317 365.3 320 411.2 308.5C457 297 503 271 548.8 272C594.7 273 640.3 301 686 310.8C731.7 320.7 777.3 312.3 823 301.8C868.7 291.3 914.3 278.7 937.2 272.3L960 266L960 541L937.2 541C914.3 541 868.7 541 823 541C777.3 541 731.7 541 686 541C640.3 541 594.7 541 548.8 541C503 541 457 541 411.2 541C365.3 541 319.7 541 274 541C228.3 541 182.7 541 137 541C91.3 541 45.7 541 22.8 541L0 541Z" fill="#428783"></path><path d="M0 330L22.8 335.7C45.7 341.3 91.3 352.7 137 346.5C182.7 340.3 228.3 316.7 274 313C319.7 309.3 365.3 325.7 411.2 343.3C457 361 503 380 548.8 381C594.7 382 640.3 365 686 357.2C731.7 349.3 777.3 350.7 823 346.5C868.7 342.3 914.3 332.7 937.2 327.8L960 323L960 541L937.2 541C914.3 541 868.7 541 823 541C777.3 541 731.7 541 686 541C640.3 541 594.7 541 548.8 541C503 541 457 541 411.2 541C365.3 541 319.7 541 274 541C228.3 541 182.7 541 137 541C91.3 541 45.7 541 22.8 541L0 541Z" fill="#4e9f9a"></path><path d="M0 408L22.8 409.7C45.7 411.3 91.3 414.7 137 418.5C182.7 422.3 228.3 426.7 274 422C319.7 417.3 365.3 403.7 411.2 398.8C457 394 503 398 548.8 390C594.7 382 640.3 362 686 358C731.7 354 777.3 366 823 379C868.7 392 914.3 406 937.2 413L960 420L960 541L937.2 541C914.3 541 868.7 541 823 541C777.3 541 731.7 541 686 541C640.3 541 594.7 541 548.8 541C503 541 457 541 411.2 541C365.3 541 319.7 541 274 541C228.3 541 182.7 541 137 541C91.3 541 45.7 541 22.8 541L0 541Z" fill="#5bb7b2"></path><path d="M0 447L22.8 440.2C45.7 433.3 91.3 419.7 137 412.3C182.7 405 228.3 404 274 412.2C319.7 420.3 365.3 437.7 411.2 441.7C457 445.7 503 436.3 548.8 437.7C594.7 439 640.3 451 686 457.5C731.7 464 777.3 465 823 453C868.7 441 914.3 416 937.2 403.5L960 391L960 541L937.2 541C914.3 541 868.7 541 823 541C777.3 541 731.7 541 686 541C640.3 541 594.7 541 548.8 541C503 541 457 541 411.2 541C365.3 541 319.7 541 274 541C228.3 541 182.7 541 137 541C91.3 541 45.7 541 22.8 541L0 541Z" fill="#77c2bf"></path><path d="M0 471L22.8 476.8C45.7 482.7 91.3 494.3 137 493.5C182.7 492.7 228.3 479.3 274 472C319.7 464.7 365.3 463.3 411.2 464.2C457 465 503 468 548.8 474.7C594.7 481.3 640.3 491.7 686 494.5C731.7 497.3 777.3 492.7 823 489.3C868.7 486 914.3 484 937.2 483L960 482L960 541L937.2 541C914.3 541 868.7 541 823 541C777.3 541 731.7 541 686 541C640.3 541 594.7 541 548.8 541C503 541 457 541 411.2 541C365.3 541 319.7 541 274 541C228.3 541 182.7 541 137 541C91.3 541 45.7 541 22.8 541L0 541Z" fill="#91cdcb"></path></svg>