<svg id="visual" viewBox="0 0 900 675" width="900" height="675" xmlns="http://www.w3.org/2000/svg" xmlns:xlink="http://www.w3.org/1999/xlink" version="1.1"><path d="M0 82L82 109L164 62L245 55L327 116L409 62L491 82L573 55L655 69L736 55L818 42L900 96L900 0L818 0L736 0L655 0L573 0L491 0L409 0L327 0L245 0L164 0L82 0L0 0Z" fill="#000018"></path><path d="M0 264L82 318L164 170L245 379L327 372L409 318L491 359L573 318L655 197L736 379L818 305L900 291L900 94L818 40L736 53L655 67L573 53L491 80L409 60L327 114L245 53L164 60L82 107L0 80Z" fill="#152d43"></path><path d="M0 332L82 372L164 264L245 440L327 426L409 366L491 420L573 460L655 285L736 494L818 379L900 386L900 289L818 303L736 377L655 195L573 316L491 357L409 316L327 370L245 377L164 168L82 316L0 262Z" fill="#21586e"></path><path d="M0 440L82 555L164 386L245 555L327 501L409 541L491 588L573 582L655 433L736 555L818 507L900 561L900 384L818 377L736 492L655 283L573 458L491 418L409 364L327 424L245 438L164 262L82 370L0 330Z" fill="#358694"></path><path d="M0 676L82 676L164 676L245 676L327 676L409 676L491 676L573 676L655 676L736 676L818 676L900 676L900 559L818 505L736 553L655 431L573 580L491 586L409 539L327 499L245 553L164 384L82 553L0 438Z" fill="#5bb7b2"></path></svg>