<svg id="visual" viewBox="0 0 900 675" width="900" height="675" xmlns="http://www.w3.org/2000/svg" xmlns:xlink="http://www.w3.org/1999/xlink" version="1.1"><rect x="0" y="0" width="900" height="675" fill="#000018"></rect><path d="M611 675L632 659C653 643 695 611 697.5 578.8C700 546.7 663 514.3 658.2 482.2C653.3 450 680.7 418 706.5 385.8C732.3 353.7 756.7 321.3 736.8 289.2C717 257 653 225 632.5 192.8C612 160.7 635 128.3 655.3 96.2C675.7 64 693.3 32 702.2 16L711 0L900 0L900 16C900 32 900 64 900 96.2C900 128.3 900 160.7 900 192.8C900 225 900 257 900 289.2C900 321.3 900 353.7 900 385.8C900 418 900 450 900 482.2C900 514.3 900 546.7 900 578.8C900 611 900 643 900 659L900 675Z" fill="#5bb7b2" stroke-linecap="round" stroke-linejoin="miter"></path></svg>