<svg id="visual" viewBox="0 0 900 600" width="900" height="600" xmlns="http://www.w3.org/2000/svg" xmlns:xlink="http://www.w3.org/1999/xlink" version="1.1"><rect x="0" y="0" width="900" height="600" fill="#000018"></rect><path d="M0 132L56 132L56 99L113 99L113 132L169 132L169 98L225 98L225 137L281 137L281 203L338 203L338 74L394 74L394 166L450 166L450 131L506 131L506 93L563 93L563 141L619 141L619 157L675 157L675 158L731 158L731 197L788 197L788 77L844 77L844 193L900 193L900 214L900 0L900 0L844 0L844 0L788 0L788 0L731 0L731 0L675 0L675 0L619 0L619 0L563 0L563 0L506 0L506 0L450 0L450 0L394 0L394 0L338 0L338 0L281 0L281 0L225 0L225 0L169 0L169 0L113 0L113 0L56 0L56 0L0 0Z" fill="#5bb7b2" stroke-linecap="square" stroke-linejoin="miter"></path></svg>