<svg id="visual" viewBox="0 0 900 600" width="900" height="600" xmlns="http://www.w3.org/2000/svg" xmlns:xlink="http://www.w3.org/1999/xlink" version="1.1"><rect x="0" y="0" width="900" height="600" fill="#000018"></rect><path d="M0 273L13.7 305.5C27.3 338 54.7 403 82 429.3C109.3 455.7 136.7 443.3 163.8 407.8C191 372.3 218 313.7 245.2 308.8C272.3 304 299.7 353 327 367.8C354.3 382.7 381.7 363.3 409 366.5C436.3 369.7 463.7 395.3 491 412.5C518.3 429.7 545.7 438.3 573 433.2C600.3 428 627.7 409 654.8 407.5C682 406 709 422 736.2 398.3C763.3 374.7 790.7 311.3 818 296.3C845.3 281.3 872.7 314.7 886.3 331.3L900 348L900 601L886.3 601C872.7 601 845.3 601 818 601C790.7 601 763.3 601 736.2 601C709 601 682 601 654.8 601C627.7 601 600.3 601 573 601C545.7 601 518.3 601 491 601C463.7 601 436.3 601 409 601C381.7 601 354.3 601 327 601C299.7 601 272.3 601 245.2 601C218 601 191 601 163.8 601C136.7 601 109.3 601 82 601C54.7 601 27.3 601 13.7 601L0 601Z" fill="#5bb7b2" stroke-linecap="round" stroke-linejoin="miter"></path></svg>